<?xml version="1.0" encoding="utf-8"?>
<!-- Generator: Adobe Illustrator 24.0.3, SVG Export Plug-In . SVG Version: 6.00 Build 0)  -->
<svg version="1.1" id="图层_1" xmlns="http://www.w3.org/2000/svg" xmlns:xlink="http://www.w3.org/1999/xlink" x="0px" y="0px"
	 viewBox="0 0 283.35 76.98" style="enable-background:new 0 0 283.35 76.98;" xml:space="preserve">
<style type="text/css">
	.st0{opacity:0.48;fill:#E3D635;}
	.st1{fill:#559E50;}
	.st2{fill:#EAC630;}
</style>
<g>
	
		<ellipse transform="matrix(0.6799 -0.7333 0.7333 0.6799 -25.01 33.9864)" class="st0" cx="26.42" cy="45.64" rx="16.21" ry="22.44"/>
	<g>
		<path class="st1" d="M46.97,10.54c-7.12-7.12-21.53-4.24-32.19,6.42C4.12,27.62,1.25,42.03,8.37,49.15
			c7.12,7.12,21.53,4.24,32.19-6.42C51.22,32.07,54.09,17.66,46.97,10.54z M38.98,41.16c-9.64,9.64-22.52,12.39-28.76,6.14
			c-6.25-6.25-3.5-19.13,6.14-28.76c9.64-9.64,22.52-12.39,28.76-6.14C51.37,18.64,48.62,31.52,38.98,41.16z"/>
		<g>
			<path class="st1" d="M47.34,66.91c-7.12,7.12-21.53,4.24-32.19-6.42C4.5,49.84,1.62,35.42,8.74,28.31
				c7.12-7.12,21.53-4.24,32.19,6.42C51.59,45.39,54.46,59.8,47.34,66.91z M39.36,36.3c-9.64-9.64-22.52-12.39-28.76-6.14
				c-6.25,6.25-3.5,19.13,6.14,28.76c9.64,9.64,22.52,12.39,28.76,6.14C51.74,58.81,48.99,45.94,39.36,36.3z"/>
		</g>
	</g>
	<circle class="st2" cx="43.49" cy="10.47" r="3.84"/>
</g>
<g>
	<path class="st1" d="M83.91,59.63c0,1.16-0.64,1.58-1.88,2.02c-0.01,0-0.01,0-0.02,0.01c-0.73,0.2-1.55,0.31-2.45,0.31
		c-1.84,0-3.23-0.46-4.19-1.37c-0.96-0.92-1.44-2.55-1.44-4.91V32.53h-2.94c-0.84,0-1.53-0.68-1.53-1.53v0
		c0-0.84,0.68-1.53,1.53-1.53h2.94v-6.95c0-1.01,0.82-1.84,1.84-1.84l0,0c1.01,0,1.84,0.82,1.84,1.84v6.95H82
		c0.84,0,1.53,0.68,1.53,1.53v0c0,0.84-0.68,1.53-1.53,1.53H77.6V54.2c0,0.77,0.02,1.44,0.06,2.01c0.04,0.57,0.16,1.04,0.37,1.4
		c0.2,0.37,0.52,0.63,0.95,0.79c0.43,0.16,1.03,0.24,1.8,0.24c0.49,0,0.96,0,1.5-0.12C83.37,58.29,83.91,59.02,83.91,59.63z"/>
	<g>
		<g>
			<path class="st1" d="M89.71,60.46V20.18c0-1.01,0.82-1.84,1.84-1.84h0c1.01,0,1.84,0.82,1.84,1.84v14.89
				c1.47-1.55,2.99-2.81,4.56-3.78c1.57-0.98,3.46-1.47,5.66-1.47c1.96,0,3.77,0.34,5.44,1.01c1.67,0.67,3.08,1.84,4.22,3.51
				c0.77,1.14,1.23,2.31,1.38,3.51c0.14,1.2,0.21,2.45,0.21,3.75v18.86c0,1.01-0.82,1.83-1.83,1.83h0c-1.01,0-1.83-0.82-1.83-1.83
				v-18.8c0-2.85-0.63-4.98-1.9-6.41c-1.26-1.42-3.36-2.14-6.3-2.14c-1.14,0-2.18,0.17-3.12,0.52c-0.94,0.35-1.78,0.8-2.54,1.37
				c-0.75,0.57-1.4,1.22-1.93,1.95c-0.53,0.73-0.94,1.51-1.22,2.32c-0.37,1.02-0.59,1.99-0.67,2.93c-0.08,0.94-0.12,1.95-0.12,3.05
				v15.2c0,1.01-0.82,1.84-1.84,1.84h0C90.54,62.29,89.71,61.47,89.71,60.46z"/>
			<path class="st1" d="M125.99,47.34c0,1.71,0.22,3.33,0.67,4.85c0.45,1.53,1.11,2.85,1.99,3.97c0.88,1.12,1.99,2.01,3.33,2.69
				c1.35,0.67,2.9,1.01,4.65,1.01c2.41,0,4.47-0.63,6.18-1.89c1.4-1.03,2.41-2.41,3.05-4.14c0.27-0.74,0.97-1.23,1.76-1.23l0,0
				c1.37,0,2.29,1.42,1.72,2.67c-0.24,0.52-0.5,1.02-0.77,1.51c-0.73,1.28-1.65,2.4-2.75,3.36c-1.1,0.96-2.41,1.7-3.92,2.23
				s-3.26,0.79-5.26,0.79c-2.53,0-4.71-0.43-6.54-1.28c-1.84-0.85-3.34-2.02-4.53-3.51c-1.18-1.48-2.06-3.24-2.63-5.25
				c-0.57-2.01-0.86-4.18-0.86-6.5c0-2.32,0.34-4.5,1.01-6.53c0.67-2.03,1.63-3.81,2.88-5.34c1.24-1.53,2.76-2.73,4.56-3.6
				c1.79-0.87,3.83-1.31,6.12-1.31c4.36,0,7.79,1.5,10.28,4.49c2.49,2.99,3.71,7.34,3.67,13.03H125.99z M146.66,44.29
				c0-1.55-0.21-3-0.64-4.36c-0.43-1.36-1.06-2.54-1.9-3.54c-0.84-1-1.89-1.79-3.15-2.38c-1.26-0.59-2.71-0.89-4.34-0.89
				c-1.63,0-3.07,0.31-4.31,0.92c-1.24,0.61-2.3,1.43-3.18,2.44c-0.88,1.02-1.58,2.2-2.11,3.54c-0.53,1.34-0.88,2.77-1.04,4.27
				H146.66z"/>
			<path class="st2" d="M191.17,31.1c-0.93,0-1.75-0.61-2.02-1.49c-0.91-2.97-2.37-5.14-4.37-6.5c-2.32-1.59-5.36-2.38-9.11-2.38
				c-2.65,0-4.94,0.53-6.85,1.59c-1.92,1.06-3.5,2.48-4.74,4.27c-1.24,1.79-2.16,3.86-2.75,6.2c-0.59,2.34-0.89,4.81-0.89,7.42
				c0,2.44,0.25,4.84,0.76,7.2c0.51,2.36,1.36,4.47,2.54,6.32c1.18,1.85,2.77,3.35,4.77,4.49c2,1.14,4.51,1.71,7.52,1.71
				c1.88,0,3.59-0.31,5.14-0.92s2.91-1.45,4.07-2.53c1.16-1.08,2.14-2.35,2.94-3.82c0.57-1.05,1.04-2.17,1.41-3.36
				c0.27-0.87,1.07-1.46,1.98-1.46l0,0c1.44,0,2.43,1.42,1.97,2.78c-0.38,1.11-0.83,2.19-1.35,3.23c-0.94,1.89-2.17,3.55-3.7,4.98
				c-1.53,1.42-3.39,2.55-5.57,3.39c-2.18,0.83-4.74,1.25-7.68,1.25c-3.39,0-6.28-0.62-8.69-1.86c-2.41-1.24-4.37-2.92-5.9-5.04
				c-1.53-2.12-2.64-4.57-3.33-7.36c-0.69-2.79-1.04-5.75-1.04-8.88c0-4.19,0.52-7.75,1.56-10.68s2.48-5.32,4.31-7.17
				c1.83-1.85,4-3.19,6.48-4.03c2.49-0.83,5.2-1.25,8.14-1.25c2.24,0,4.33,0.3,6.27,0.89c1.94,0.59,3.65,1.48,5.14,2.66
				c1.49,1.18,2.71,2.64,3.67,4.36c0.55,1,1.01,2.09,1.37,3.28C193.62,29.73,192.59,31.1,191.17,31.1L191.17,31.1z"/>
			<path class="st2" d="M204.17,47.34c0,1.71,0.22,3.33,0.67,4.85c0.45,1.53,1.11,2.85,1.99,3.97c0.88,1.12,1.99,2.01,3.33,2.69
				c1.35,0.67,2.9,1.01,4.65,1.01c2.41,0,4.47-0.63,6.18-1.89c1.4-1.03,2.41-2.41,3.05-4.14c0.27-0.74,0.97-1.23,1.76-1.23l0,0
				c1.37,0,2.29,1.42,1.72,2.67c-0.24,0.52-0.5,1.02-0.77,1.51c-0.73,1.28-1.65,2.4-2.75,3.36c-1.1,0.96-2.41,1.7-3.92,2.23
				s-3.26,0.79-5.26,0.79c-2.53,0-4.71-0.43-6.54-1.28c-1.84-0.85-3.34-2.02-4.53-3.51c-1.18-1.48-2.06-3.24-2.63-5.25
				c-0.57-2.01-0.86-4.18-0.86-6.5c0-2.32,0.34-4.5,1.01-6.53c0.67-2.03,1.63-3.81,2.88-5.34c1.24-1.53,2.76-2.73,4.56-3.6
				c1.79-0.87,3.83-1.31,6.12-1.31c4.36,0,7.79,1.5,10.28,4.49c2.49,2.99,3.71,7.34,3.67,13.03H204.17z M224.84,44.29
				c0-1.55-0.21-3-0.64-4.36c-0.43-1.36-1.06-2.54-1.9-3.54c-0.84-1-1.89-1.79-3.15-2.38c-1.26-0.59-2.71-0.89-4.34-0.89
				c-1.63,0-3.07,0.31-4.31,0.92c-1.24,0.61-2.3,1.43-3.18,2.44c-0.88,1.02-1.58,2.2-2.11,3.54c-0.53,1.34-0.88,2.77-1.04,4.27
				H224.84z"/>
			<path class="st2" d="M236.46,60.46V20.18c0-1.01,0.82-1.83,1.83-1.83l0,0c1.01,0,1.83,0.82,1.83,1.83v40.28
				c0,1.01-0.82,1.83-1.83,1.83l0,0C237.29,62.29,236.46,61.47,236.46,60.46z"/>
			<path class="st2" d="M262.09,63.15c-2.04-0.04-3.95-0.41-5.72-1.1c-1.77-0.69-3.32-1.73-4.65-3.11
				c-1.33-1.38-2.38-3.11-3.15-5.19c-0.77-2.08-1.16-4.5-1.16-7.26c0-2.32,0.31-4.49,0.92-6.5c0.61-2.01,1.53-3.77,2.75-5.28
				c1.22-1.51,2.75-2.7,4.59-3.57c1.83-0.87,3.98-1.31,6.42-1.31c2.49,0,4.65,0.44,6.48,1.31c1.83,0.88,3.36,2.06,4.59,3.54
				c1.22,1.49,2.13,3.25,2.72,5.28c0.59,2.04,0.89,4.21,0.89,6.53c0,2.52-0.35,4.8-1.04,6.84c-0.69,2.04-1.68,3.78-2.97,5.25
				c-1.29,1.46-2.83,2.59-4.65,3.39C266.3,62.75,264.3,63.15,262.09,63.15z M272.86,46.48c0-1.87-0.21-3.62-0.61-5.25
				c-0.41-1.63-1.04-3.04-1.9-4.24c-0.86-1.2-1.96-2.15-3.3-2.84c-1.35-0.69-3-1.04-4.96-1.04c-1.92,0-3.56,0.38-4.92,1.13
				c-1.37,0.75-2.48,1.75-3.33,2.99c-0.86,1.24-1.49,2.67-1.9,4.27c-0.41,1.61-0.61,3.27-0.61,4.98c0,1.95,0.23,3.75,0.7,5.4
				c0.47,1.65,1.15,3.06,2.05,4.24c0.9,1.18,2.02,2.1,3.36,2.75c1.35,0.65,2.9,0.98,4.65,0.98c1.92,0,3.56-0.38,4.92-1.13
				c1.37-0.75,2.48-1.76,3.33-3.02c0.86-1.26,1.49-2.69,1.9-4.27C272.66,49.84,272.86,48.19,272.86,46.48z"/>
		</g>
	</g>
</g>
</svg>
