<?xml version="1.0" encoding="utf-8"?>
<!-- Generator: Adobe Illustrator 24.0.3, SVG Export Plug-In . SVG Version: 6.00 Build 0)  -->
<svg version="1.1" id="图层_1" xmlns="http://www.w3.org/2000/svg" xmlns:xlink="http://www.w3.org/1999/xlink" x="0px" y="0px"
	 viewBox="0 0 283.35 76.98" style="enable-background:new 0 0 283.35 76.98;" xml:space="preserve">
<style type="text/css">
	.st0{opacity:0.48;fill:#E3D635;}
	.st1{fill:#559E50;}
	.st2{fill:#EAC630;}
</style>
<g>
	
		<ellipse transform="matrix(0.6799 -0.7333 0.7333 0.6799 -25.0066 33.6595)" class="st0" cx="26.05" cy="45.47" rx="16.21" ry="22.44"/>
	<g>
		<path class="st1" d="M46.6,10.37c-7.12-7.12-21.53-4.24-32.19,6.42C3.75,27.45,0.88,41.86,7.99,48.98
			c7.12,7.12,21.53,4.24,32.19-6.42C50.84,31.9,53.72,17.49,46.6,10.37z M38.61,40.99c-9.64,9.64-22.52,12.39-28.76,6.14
			C3.6,40.88,6.35,28,15.98,18.36c9.64-9.64,22.52-12.39,28.76-6.14C51,18.47,48.25,31.35,38.61,40.99z"/>
		<g>
			<path class="st1" d="M46.97,66.75c-7.12,7.12-21.53,4.24-32.19-6.42C4.12,49.67,1.25,35.26,8.37,28.14
				c7.12-7.12,21.53-4.24,32.19,6.42C51.22,45.22,54.09,59.63,46.97,66.75z M38.98,36.13c-9.64-9.64-22.52-12.39-28.76-6.14
				c-6.25,6.25-3.5,19.13,6.14,28.76c9.64,9.64,22.52,12.39,28.76,6.14C51.37,58.65,48.62,45.77,38.98,36.13z"/>
		</g>
	</g>
	<circle class="st2" cx="43.11" cy="10.3" r="3.84"/>
</g>
<g>
	<path class="st1" d="M85.83,59.14c0,1.16-0.64,1.58-1.88,2.02c-0.01,0-0.01,0-0.02,0.01c-0.73,0.2-1.55,0.31-2.45,0.31
		c-1.84,0-3.23-0.46-4.19-1.37c-0.96-0.92-1.44-2.55-1.44-4.91V32.05h-2.94c-0.84,0-1.53-0.68-1.53-1.53v0
		c0-0.84,0.68-1.53,1.53-1.53h2.94v-6.95c0-1.01,0.82-1.84,1.84-1.84h0c1.01,0,1.84,0.82,1.84,1.84v6.95h4.41
		c0.84,0,1.53,0.68,1.53,1.53v0c0,0.84-0.68,1.53-1.53,1.53h-4.41v21.67c0,0.77,0.02,1.44,0.06,2.01c0.04,0.57,0.16,1.04,0.37,1.4
		c0.2,0.37,0.52,0.63,0.95,0.79c0.43,0.16,1.03,0.24,1.8,0.24c0.49,0,0.96,0,1.5-0.12C85.29,57.8,85.83,58.54,85.83,59.14z"/>
	<path class="st1" d="M91.57,58.78V18.5c0-1.01,0.82-1.84,1.84-1.84h0c1.01,0,1.84,0.82,1.84,1.84v14.89
		c1.47-1.55,2.99-2.81,4.56-3.78c1.57-0.98,3.46-1.47,5.66-1.47c1.96,0,3.77,0.34,5.44,1.01c1.67,0.67,3.08,1.84,4.22,3.51
		c0.77,1.14,1.23,2.31,1.38,3.51c0.14,1.2,0.21,2.45,0.21,3.75v18.86c0,1.01-0.82,1.83-1.83,1.83h0c-1.01,0-1.83-0.82-1.83-1.83
		v-18.8c0-2.85-0.63-4.98-1.9-6.41c-1.26-1.42-3.36-2.14-6.3-2.14c-1.14,0-2.18,0.17-3.12,0.52c-0.94,0.35-1.78,0.8-2.54,1.37
		c-0.75,0.57-1.4,1.22-1.93,1.95c-0.53,0.73-0.94,1.51-1.22,2.32c-0.37,1.02-0.59,1.99-0.67,2.93c-0.08,0.94-0.12,1.95-0.12,3.05
		v15.2c0,1.01-0.82,1.84-1.84,1.84h0C92.39,60.61,91.57,59.79,91.57,58.78z"/>
	<path class="st1" d="M127.85,45.66c0,1.71,0.22,3.33,0.67,4.85c0.45,1.53,1.11,2.85,1.99,3.97c0.88,1.12,1.99,2.01,3.33,2.69
		c1.35,0.67,2.9,1.01,4.65,1.01c2.41,0,4.47-0.63,6.18-1.89c1.4-1.03,2.41-2.41,3.05-4.14c0.27-0.74,0.97-1.23,1.76-1.23l0,0
		c1.37,0,2.29,1.42,1.72,2.67c-0.24,0.52-0.5,1.02-0.77,1.51c-0.73,1.28-1.65,2.4-2.75,3.36c-1.1,0.96-2.41,1.7-3.92,2.23
		s-3.26,0.79-5.26,0.79c-2.53,0-4.71-0.43-6.54-1.28c-1.84-0.85-3.34-2.02-4.53-3.51c-1.18-1.48-2.06-3.24-2.63-5.25
		c-0.57-2.01-0.86-4.18-0.86-6.5c0-2.32,0.34-4.5,1.01-6.53c0.67-2.03,1.63-3.81,2.88-5.34c1.24-1.53,2.76-2.73,4.56-3.6
		c1.79-0.87,3.83-1.31,6.12-1.31c4.36,0,7.79,1.5,10.28,4.49c2.49,2.99,3.71,7.34,3.67,13.03H127.85z M148.52,42.61
		c0-1.55-0.21-3-0.64-4.36c-0.43-1.36-1.06-2.54-1.9-3.54c-0.84-1-1.89-1.79-3.15-2.38c-1.26-0.59-2.71-0.89-4.34-0.89
		c-1.63,0-3.07,0.31-4.31,0.92c-1.24,0.61-2.3,1.43-3.18,2.44c-0.88,1.02-1.58,2.2-2.11,3.54c-0.53,1.34-0.88,2.77-1.04,4.27H148.52
		z"/>
	<path class="st2" d="M183.4,38.94c-0.78,0-1.48-0.49-1.75-1.21c-0.67-1.79-1.66-3.22-2.97-4.31c-1.59-1.32-3.61-1.98-6.06-1.98
		c-1.88,0-3.49,0.39-4.83,1.16c-1.35,0.77-2.45,1.8-3.3,3.08s-1.49,2.73-1.9,4.33c-0.41,1.61-0.61,3.23-0.61,4.85
		c0,1.67,0.19,3.3,0.58,4.88c0.39,1.59,1.01,3.01,1.87,4.27c0.86,1.26,1.96,2.27,3.3,3.02c1.35,0.75,2.98,1.13,4.89,1.13
		c2.73,0,4.92-0.75,6.58-2.26c1.35-1.23,2.3-2.85,2.85-4.84c0.22-0.81,0.96-1.38,1.8-1.38h0c1.28,0,2.19,1.25,1.79,2.47
		c-0.26,0.81-0.58,1.59-0.94,2.33c-0.71,1.44-1.63,2.69-2.75,3.72c-1.12,1.04-2.46,1.84-4.01,2.41s-3.32,0.85-5.32,0.85
		c-2.53,0-4.71-0.43-6.54-1.28s-3.34-2.02-4.53-3.51c-1.18-1.48-2.06-3.24-2.63-5.28c-0.57-2.03-0.86-4.21-0.86-6.53
		c0-2.2,0.32-4.3,0.95-6.32c0.63-2.01,1.56-3.79,2.78-5.34c1.22-1.55,2.74-2.78,4.56-3.69c1.81-0.92,3.9-1.37,6.27-1.37
		c3.67,0,6.64,0.88,8.9,2.62c1.73,1.34,2.97,3.25,3.71,5.74c0.36,1.21-0.54,2.44-1.8,2.44H183.4z"/>
	<path class="st2" d="M195.87,45.66c0,1.71,0.22,3.33,0.67,4.85c0.45,1.53,1.11,2.85,1.99,3.97c0.88,1.12,1.99,2.01,3.33,2.69
		c1.35,0.67,2.9,1.01,4.65,1.01c2.41,0,4.47-0.63,6.18-1.89c1.4-1.03,2.41-2.41,3.05-4.14c0.27-0.74,0.97-1.23,1.76-1.23l0,0
		c1.37,0,2.29,1.42,1.72,2.67c-0.24,0.52-0.5,1.02-0.77,1.51c-0.73,1.28-1.65,2.4-2.75,3.36c-1.1,0.96-2.41,1.7-3.92,2.23
		s-3.26,0.79-5.26,0.79c-2.53,0-4.71-0.43-6.54-1.28c-1.84-0.85-3.34-2.02-4.53-3.51c-1.18-1.48-2.06-3.24-2.63-5.25
		c-0.57-2.01-0.86-4.18-0.86-6.5c0-2.32,0.34-4.5,1.01-6.53c0.67-2.03,1.63-3.81,2.88-5.34c1.24-1.53,2.76-2.73,4.56-3.6
		c1.79-0.87,3.83-1.31,6.12-1.31c4.36,0,7.79,1.5,10.28,4.49c2.49,2.99,3.71,7.34,3.67,13.03H195.87z M216.55,42.61
		c0-1.55-0.21-3-0.64-4.36c-0.43-1.36-1.06-2.54-1.9-3.54c-0.84-1-1.89-1.79-3.15-2.38c-1.26-0.59-2.71-0.89-4.34-0.89
		c-1.63,0-3.07,0.31-4.31,0.92c-1.24,0.61-2.3,1.43-3.18,2.44c-0.88,1.02-1.58,2.2-2.11,3.54c-0.53,1.34-0.88,2.77-1.04,4.27H216.55
		z"/>
	<path class="st2" d="M228.17,58.78V18.5c0-1.01,0.82-1.83,1.83-1.83l0,0c1.01,0,1.83,0.82,1.83,1.83v40.28
		c0,1.01-0.82,1.83-1.83,1.83l0,0C228.99,60.61,228.17,59.79,228.17,58.78z"/>
	<path class="st2" d="M253.8,61.47c-2.04-0.04-3.95-0.41-5.72-1.1c-1.77-0.69-3.32-1.73-4.65-3.11c-1.33-1.38-2.38-3.11-3.15-5.19
		c-0.77-2.08-1.16-4.5-1.16-7.26c0-2.32,0.31-4.49,0.92-6.5c0.61-2.01,1.53-3.77,2.75-5.28c1.22-1.51,2.75-2.7,4.59-3.57
		c1.83-0.87,3.98-1.31,6.42-1.31c2.49,0,4.65,0.44,6.48,1.31c1.83,0.88,3.36,2.06,4.59,3.54c1.22,1.49,2.13,3.25,2.72,5.28
		c0.59,2.04,0.89,4.21,0.89,6.53c0,2.52-0.35,4.8-1.04,6.84c-0.69,2.04-1.68,3.78-2.97,5.25c-1.29,1.46-2.83,2.59-4.65,3.39
		C258.01,61.07,256,61.47,253.8,61.47z M264.57,44.8c0-1.87-0.21-3.62-0.61-5.25c-0.41-1.63-1.04-3.04-1.9-4.24
		c-0.86-1.2-1.96-2.15-3.3-2.84c-1.35-0.69-3-1.04-4.96-1.04c-1.92,0-3.56,0.38-4.92,1.13c-1.37,0.75-2.48,1.75-3.33,2.99
		c-0.86,1.24-1.49,2.67-1.9,4.27c-0.41,1.61-0.61,3.27-0.61,4.98c0,1.95,0.23,3.75,0.7,5.4c0.47,1.65,1.15,3.06,2.05,4.24
		c0.9,1.18,2.02,2.1,3.36,2.75c1.35,0.65,2.9,0.98,4.65,0.98c1.92,0,3.56-0.38,4.92-1.13c1.37-0.75,2.48-1.76,3.33-3.02
		c0.86-1.26,1.49-2.69,1.9-4.27C264.36,48.16,264.57,46.51,264.57,44.8z"/>
</g>
</svg>
