<svg id="Bi23" data-name="Bi23 logo" xmlns="http://www.w3.org/2000/svg" viewBox="0 0 141.73 141.73"><defs><style>.cls-1{fill:#6ec6d5;}.cls-2{fill:#2b63ae;}</style></defs><title>Bi23 Labs</title><path class="cls-1" d="M101,57A30.24,30.24,0,0,0,70.85,26.83H47.7a6.78,6.78,0,0,0-6.78,6.78V57H70.85A30.21,30.21,0,0,1,96.93,72.05,29.89,29.89,0,0,0,101,57Z"/><path class="cls-2" d="M70.85,87.13H40.92v23.36a6.78,6.78,0,0,0,6.78,6.78H70.85A30.24,30.24,0,0,0,101,87.13h0a29.89,29.89,0,0,0-4.07-15.07A30.21,30.21,0,0,1,70.85,87.13Z"/></svg>
